<?xml version="1.0" encoding="UTF-8"?>
<svg width="200" height="200" viewBox="0 0 200 200" fill="none" xmlns="http://www.w3.org/2000/svg">
  <!-- Background Circle -->
  <circle cx="100" cy="100" r="90" fill="#4A90E2" fill-opacity="0.1"/>
  
  <!-- Book Shape -->
  <path d="M60 50 L140 50 L140 150 L60 150 Z" fill="#4A90E2" fill-opacity="0.2"/>
  <path d="M60 50 L140 50 L140 150 L60 150 Z" stroke="#4A90E2" stroke-width="4"/>
  
  <!-- Pages -->
  <path d="M70 60 L130 60" stroke="#4A90E2" stroke-width="2"/>
  <path d="M70 80 L130 80" stroke="#4A90E2" stroke-width="2"/>
  <path d="M70 100 L130 100" stroke="#4A90E2" stroke-width="2"/>
  <path d="M70 120 L130 120" stroke="#4A90E2" stroke-width="2"/>
  <path d="M70 140 L130 140" stroke="#4A90E2" stroke-width="2"/>
  
  <!-- Sparkle -->
  <path d="M120 40 L130 30 L120 20" stroke="#FFD700" stroke-width="3" stroke-linecap="round"/>
  <path d="M110 35 L140 35" stroke="#FFD700" stroke-width="3" stroke-linecap="round"/>
  
  <!-- Child Face -->
  <circle cx="100" cy="90" r="20" fill="#FFD700"/>
  <circle cx="95" cy="85" r="2" fill="#4A90E2"/>
  <circle cx="105" cy="85" r="2" fill="#4A90E2"/>
  <path d="M95 100 Q100 105 105 100" stroke="#4A90E2" stroke-width="2" fill="none"/>
</svg> 